<?xml version="1.0" encoding="UTF-8"?>
<svg id="Bike" xmlns="http://www.w3.org/2000/svg" viewBox="0 0 306 181.63">
  <g id="_3Lb8wu.tif" data-name="3Lb8wu.tif">
    <path d="M195.84,41.77l-6.52-18.78c-.29-3.44,3.13-3.85,5.83-4.06,6.16-.48,23.01-.6,28.44,1.15,11.91,3.83,13.1,18.84,1.52,24.33-2.9,1.37-10.99,4.54-11.73-.29-.57-3.67,4.95-3.61,7.65-4.69,5.47-2.19,9.03-7.64,3.24-11.98-1.07-.8-4.62-2.24-5.82-2.24h-21.72l16.54,48.16c.54.4,7.87-2.08,9.34-2.37,47.85-9.34,84.53,43.17,58.22,84.61-22.68,35.72-75.85,34.05-96.27-2.97-15.16-27.48-4.39-61.57,22.88-76.22l-4.22-12.7-53.9,58.32c8.34,10.83,1.38,24.93-11.73,26.55l-.35,7.04.94.65c1.69-.93,5.38-.25,5.16,2.03-.05.49-1.19,2.08-1.47,2.08h-12.99c-.3,0-1.07-1.39-1.02-1.95.2-2.27,3.66-3.1,5.47-2.14,1.49-.35,1.32-6.62.96-8.03l-17.9-3.47c-2.12,3.89-3.81,8.16-6.35,11.97-22.48,33.8-73.62,32.62-94.42-2.24-24.75-41.48,11.22-92.48,58.49-83.53,5.08.96,9.3,2.85,14.18,4.28l17.44-30.52-5.94-18.22c-2.47-.77-4.67-.24-7.38-1.12-1.58-.51-9.09-4.89-10.11-6.01-2.55-2.82.42-5.23,3.6-5.3,4.77-.1,11.05,1.45,16.1,1.68,5.73.25,20.76-1.05,24.84,2.52.96.84,2.18,3.77.71,3.77h-12.54c-.98,0-8.97,2.73-9.08,3.33l5.5,16.36h84.41ZM198.08,48.04h-85.09l18.37,57.74c1.07-.64.89-1.93,2.47-2.22,1.71-.32,9.35-.27,11.2-.03,3.16.41,2.3,4.06-.03,4.49-1.23.23-2.69-.2-3.96.07-.58.15-.65.54-.74,1.05-.36,2-.1,5.2-.42,7.37l4.69,1.21,56.44-60.74-2.94-8.94ZM108.51,53.41l-1.26.75-13.88,24.1c13.42,9.06,22.62,22.6,25.5,38.65l9.79-.39-20.15-63.11ZM64.63,135.99v36.93c-1.12.01-2.55.33-2.69-1.12l.02-36.63-3.83-2.01-26.64,26.59c-.94.49-1.69-.82-2.2-1.43l26.63-27.01-1.15-4.02-37.38-.02c-1.45-.14-1.13-1.57-1.12-2.69h38.29c.56-1.16,2.29-3.39,1.81-4.46l-26.91-27.33c.76-.62,1.83-1.29,2.72-.47l26.2,26.23,3.57-.69v-38.94h2.69v36.7l20.15-34.91c-29.92-13.6-64.14,3.9-70.17,36.16-5.18,27.7,14.46,54.41,42.24,58.23,22.57,3.1,44.21-10,52.95-30.69l-.69-.96-31.04-5.45,19.51,19.69c.59.71-1.19,2.34-1.77,2.21l-22.24-22.56c-1.12-.75-6.62-2.1-7.86-2.01-.43.03-.97.28-1.07.65ZM232.11,117.42v-38.5h2.69v39.39l3.14,1.15,27.76-27.81,2.03,1.14-27.81,28.22,1.37,3.57h39.18c.01,1.12.33,2.55-1.12,2.69l-38.71.03-.73,3.09,27.94,27.99-1.54,1.53-27.94-27.52-3.57,1.37v39.17c-1.12.01-2.55.33-2.69-1.12l-.2-38.29-2.79-1.25-27.46,27.48c-.94.49-1.69-.82-2.2-1.43l27.66-28.5-.82-2.55h-39.86v-2.69h39.86l.89-2.92-27.73-28.25,1.54-1.94,20.82,20.13c-2.01-4-4.29-7.96-6.04-12.09-2.34-5.53-3.79-11.6-6.31-16.99-27.91,15.02-34.24,52.78-12.96,76.53,34.49,38.5,98.63,4.15,85.19-46.21-7.61-28.49-38.55-43.98-66.15-33.46,3.22,12.42,8.47,24.06,14.7,35.2l1.87,2.83ZM112.55,117.42c-1.98-13.86-10.7-25.86-22.18-33.55l-16.78,29.52,22.61-21.92,1.54,1.94-25.04,25.8,39.86-1.79ZM137.63,108.01c-1.94-.09-3.82.52-5.37-.89l2.96,8.98,1.9-.76.51-7.33ZM119.26,119.21v7.83c0,.65,2.11.97,2.71.47,1.31-3.62,3.19-6.41,6.25-8.74l-8.96.44ZM112.95,119.7c-13.78.27-27.64.83-41.38,1.74-.67.04-1.3-.34-1.1.66,1.33,3.05,5.04,1.84,7.83,2.03.88.06,1.72.42,2.67.46,9.9.4,19.9-.33,29.8-.02l.02,2.22,2.66.47-.49-7.56ZM139.86,123.68l1.8-2.46c-.06-1.25-1.25-1.19-2.24-1.11.24.89-.57,3.18.44,3.58ZM132.25,128.6c.38-.35-1.7-6.06-2.88-5.8-1.58,1.4-3.36,3.04-3.39,5.35l6.27.45ZM142.55,130.4l6.07-.88c.49-.67-1.4-4.48-1.82-4.48-.59.59-4.68,4.93-4.25,5.36ZM71.18,129.99l-.51.85c1.64,1.5,2.36,3.59,4.7,4.26l34.72,6.5c1.72-.12,1.98-6.45,2.83-7.86l-41.75-3.74ZM149.27,132.63h-8.28c-.27,0-1.05,1.24-.92,1.83.09.41,4.53,6.67,4.95,6.67,2.73-2.11,3.87-5.14,4.25-8.5ZM121.44,134.04l-2.62-.51-1.8,9.4,10.3,1.79c-3.01-3.06-5.58-6.16-5.88-10.68ZM133.59,134.88l-8.51-.45c-.58.51,3.01,6.86,4.28,7.14,1.06.24,3.59-5.64,4.22-6.69ZM138.07,144.27c1.49-.16,3.33-.61,4.48-1.58.12-.56-3.47-5.21-4.48-5.59v7.16ZM134.94,143.83l.45-5.37c-1.47.81-2.09,2.78-2.69,4.28l.73,1.04,1.51.06Z"/>
  </g>
</svg>