<?xml version="1.0" encoding="UTF-8"?>
<svg id="Ebene_1" data-name="Ebene 1" xmlns="http://www.w3.org/2000/svg" viewBox="0 0 560.63 227.47">
  <defs>
    <style>
      .cls-1 {
        fill: #1d1d1b;
      }
    </style>
  </defs>
  <g>
    <path class="cls-1" d="M144.83,44.57H52.7v63.16H15.63V16.39h129.2v28.19ZM39.25,53.06h103.09v27.93H39.25v-27.93Z"/>
    <path class="cls-1" d="M150.18,34.66h22.32v15.01h12.14v58.07h-34.45V34.66ZM175.95,42.81c.83-2.56,2.35-4.57,4.57-6,2.22-1.44,5.29-2.15,9.2-2.15h20.36v31.84h-19.84c-1.04,0-2,.2-2.87.59-.87.39-1.55.98-2.02,1.76-.48.78-.72,1.65-.72,2.61l-9.92-.26v-18.66c0-3.92.41-7.15,1.24-9.72Z"/>
    <path class="cls-1" d="M221.43,100.3c-6.87-6-10.31-15.4-10.31-28.19v-2.09c0-12.53,3.37-21.81,10.11-27.86,6.74-6.05,16.42-9.07,29.04-9.07h48.94c12.18,0,21.73,3,28.65,9s10.37,14.92,10.37,26.75v8.87h-34.84v-17.62c0-2.52-.61-4.31-1.83-5.35-1.22-1.04-3.48-1.57-6.79-1.57h-40.19c-3.39,0-5.66.48-6.79,1.44-1.13.96-1.7,2.7-1.7,5.22v16.7c0,2.87.24,5.02.72,6.46.48,1.44,1.37,2.44,2.68,3,1.3.57,3.22.85,5.74.85h40.85c2.17,0,3.83-.13,4.96-.39,1.13-.26,1.94-.72,2.41-1.37.48-.65.72-1.54.72-2.68v-.26h34.19v.26c0,6-1.68,11.01-5.02,15.01-3.35,4-7.88,6.98-13.57,8.94-5.7,1.96-12.2,2.94-19.51,2.94h-48.94c-13.05,0-23.01-3-29.88-9ZM235.4,61.41h101.79l1.04,7.7v8.87h-102.83v-16.57Z"/>
    <path class="cls-1" d="M343.06,16.39h34.97v13.83h-34.97v-13.83ZM343.32,34.66h34.45v73.08h-34.45V34.66Z"/>
    <path class="cls-1" d="M384.29,16.39h10.31v11.48c-.78,1.04-1.42,2.15-1.89,3.33-.48,1.17-.81,2.63-.98,4.37h1.04c.7-2.35,2.02-4.22,3.98-5.61,1.96-1.39,4.54-2.09,7.76-2.09h.65c3.39,0,6.11.68,8.16,2.02,2.04,1.35,3.54,3.57,4.5,6.66.96,3.09,1.44,7.2,1.44,12.33v58.86h-10.44v-60.16c0-3.57-.5-6.13-1.5-7.7-1-1.57-2.67-2.35-5.02-2.35h-.78c-2.35,0-4.09.78-5.22,2.35-1.13,1.57-1.7,4.13-1.7,7.7l.39,60.16h-10.31l-.39-91.35Z"/>
    <path class="cls-1" d="M428.99,104.28c-2.22-2.83-3.33-7.29-3.33-13.38v-2.61c0-4.52.52-8.18,1.57-10.96,1.04-2.78,2.74-5,5.09-6.66,2.35-1.65,5.52-3,9.53-4.05l4.96-.91c.87-.17,1.44-.5,1.7-.98.26-.48.39-1.28.39-2.41v-16.18c0-2.26-.2-4.07-.59-5.42-.39-1.35-1.02-2.3-1.89-2.87-.87-.56-1.96-.85-3.26-.85h-.39c-2,0-3.48.7-4.44,2.09-.96,1.39-1.44,3.7-1.44,6.92v16.31h-10.05v-13.7c0-5.13.56-9.2,1.7-12.2,1.13-3,2.85-5.2,5.15-6.59,2.3-1.39,5.33-2.09,9.07-2.09h1.04c3.65,0,6.63.67,8.94,2.02,2.3,1.35,3.98,3.63,5.02,6.85,1.04,3.22,1.57,7.44,1.57,12.66v58.46h-6.66v-7.83h-1.04c-.61,2.79-1.89,4.92-3.85,6.39s-4.63,2.22-8.03,2.22h-.39c-4.7,0-8.16-1.41-10.38-4.24ZM447.33,96.84c1.04-1.44,1.57-3.98,1.57-7.63v-16.31l-5.35,1.3c-1.91.52-3.44,1.2-4.57,2.02-1.13.83-1.89,1.89-2.28,3.2-.39,1.3-.59,2.87-.59,4.7v6.92c-.09,2.79.37,4.81,1.37,6.07,1,1.26,2.59,1.89,4.76,1.89h.39c2.09,0,3.65-.72,4.7-2.15Z"/>
    <path class="cls-1" d="M477.6,94.55c.43,1.48,1.15,2.54,2.15,3.2,1,.65,2.28.98,3.85.98h.39c1.65,0,2.98-.33,3.98-.98,1-.65,1.76-1.72,2.28-3.2.52-1.48.78-3.44.78-5.87l3.39.26v3.39c0,5.48-.98,9.53-2.94,12.14-1.96,2.61-5.37,3.92-10.24,3.92h-.39c-3.57,0-6.42-.7-8.55-2.09-2.13-1.39-3.65-3.61-4.57-6.66-.91-3.04-1.37-7.18-1.37-12.4V28.52h10.57v60.16c0,2.44.22,4.39.65,5.87ZM501.35,107.74h-6.79v-7.83h-3.52V28.52h10.31v79.21Z"/>
    <path class="cls-1" d="M514.86,106.5c-2.39-1.35-4.16-3.39-5.29-6.13-1.13-2.74-1.7-6.28-1.7-10.64v-12.01h10.18v13.31c0,2.96.5,5.13,1.5,6.52,1,1.39,2.54,2.09,4.63,2.09h.65c1.91,0,3.39-.61,4.44-1.83,1.04-1.22,1.57-3.13,1.57-5.74v-7.44c0-2.26-.41-4.15-1.24-5.68-.83-1.52-1.81-2.74-2.94-3.65-1.13-.91-2.79-1.94-4.96-3.07-2.87-1.39-5.18-2.76-6.92-4.11-1.74-1.35-3.24-3.41-4.5-6.2-1.26-2.78-1.89-6.44-1.89-10.96v-5.48c0-6.18,1.28-10.68,3.85-13.51,2.57-2.83,6.46-4.24,11.68-4.24h1.04c3.65,0,6.61.63,8.87,1.89,2.26,1.26,3.96,3.24,5.09,5.94,1.13,2.7,1.7,6.22,1.7,10.57v12.53h-10.44v-13.83c0-2.96-.44-5.09-1.31-6.39-.87-1.31-2.22-1.96-4.05-1.96h-.65c-1.83,0-3.2.61-4.11,1.83-.91,1.22-1.37,3.09-1.37,5.61v7.18c0,2.35.41,4.29,1.24,5.81.83,1.52,1.87,2.76,3.13,3.72,1.26.96,2.94,2,5.02,3.13,2.61,1.48,4.78,2.89,6.52,4.24,1.74,1.35,3.24,3.39,4.5,6.13,1.26,2.74,1.89,6.24,1.89,10.5v5.61c0,6.44-1.26,11.09-3.78,13.96-2.52,2.87-6.48,4.31-11.88,4.31h-1.57c-3.57,0-6.55-.68-8.94-2.02Z"/>
  </g>
  <g>
    <path class="cls-1" d="M34.75,209.71c-5.7-3.04-9.98-7.59-12.85-13.64-2.87-6.05-4.31-13.55-4.31-22.51v-12.79c0-9.05,1.44-16.57,4.31-22.58s7.15-10.53,12.85-13.57c5.7-3.04,12.72-4.57,21.08-4.57h2.09c7.57,0,14.03,1.42,19.38,4.24,5.35,2.83,9.37,6.79,12.07,11.88,2.7,5.09,4.05,10.98,4.05,17.68v4.05h-15.66v-4.31c0-3.83-.72-7.22-2.15-10.18-1.44-2.96-3.61-5.31-6.52-7.05-2.92-1.74-6.68-2.61-11.29-2.61h-2.09c-7.31,0-12.81,2.22-16.51,6.66-3.7,4.44-5.55,11.14-5.55,20.1v13.31c0,8.96,1.85,15.66,5.55,20.1,3.7,4.44,9.2,6.66,16.51,6.66h2.09c4.61,0,8.4-.87,11.35-2.61,2.96-1.74,5.13-4.09,6.53-7.05,1.39-2.96,2.09-6.35,2.09-10.18v-3.52h15.66v3.26c0,6.7-1.35,12.59-4.05,17.68-2.7,5.09-6.72,9.05-12.07,11.88-5.35,2.83-11.81,4.24-19.38,4.24h-2.09c-8.35,0-15.38-1.52-21.08-4.57Z"/>
    <path class="cls-1" d="M107.37,212.59h10.96c2.78,0,4.94-.46,6.46-1.37,1.52-.91,2.72-2.5,3.59-4.76l2.09-4.57h-8.74l-22.84-63.81h16.18l17.36,52.2h1.96l16.05-52.2h15.92l-24.27,72.3c-1.13,3.74-2.61,6.68-4.44,8.81-1.83,2.13-4.16,3.7-6.98,4.7-2.83,1-6.59,1.5-11.29,1.5h-12.01v-12.79Z"/>
    <path class="cls-1" d="M177.52,205.73c-5.35-5.7-8.03-13.98-8.03-24.86v-10.83c0-10.79,2.7-19.03,8.09-24.73,5.39-5.7,13.01-8.55,22.84-8.55h1.96c6.26,0,11.63,1.15,16.12,3.46,4.48,2.31,7.92,5.66,10.31,10.05,2.39,4.39,3.59,9.55,3.59,15.46v4.83h-14.88v-5.22c0-3.31-.54-6.15-1.63-8.55-1.09-2.39-2.81-4.26-5.15-5.61-2.35-1.35-5.27-2.02-8.74-2.02h-1.04c-3.65,0-6.72.78-9.2,2.35s-4.29,3.85-5.42,6.85c-1.13,3-1.7,6.72-1.7,11.16v11.88c0,4.35.59,8.05,1.76,11.09,1.17,3.05,3,5.35,5.48,6.92s5.5,2.35,9.07,2.35h1.04c3.48,0,6.39-.65,8.74-1.96,2.35-1.31,4.07-3.07,5.15-5.29,1.09-2.22,1.63-4.81,1.63-7.76v-2.74h14.88v2.22c0,5.66-1.22,10.59-3.65,14.81-2.44,4.22-5.92,7.48-10.44,9.79-4.52,2.3-9.83,3.46-15.92,3.46h-1.96c-9.92,0-17.55-2.85-22.9-8.55Z"/>
    <path class="cls-1" d="M245.31,121.5h15.01v91.35h-15.01v-91.35Z"/>
    <path class="cls-1" d="M281.98,205.67c-5.48-5.74-8.22-14.09-8.22-25.06v-10.31c0-10.87,2.76-19.18,8.29-24.93,5.52-5.74,13.16-8.61,22.9-8.61h.91c9.4,0,16.7,2.83,21.92,8.48,5.22,5.66,7.83,13.83,7.83,24.53v7.05h-15.01v-10.57c0-5.92-1.26-10.35-3.78-13.31-2.52-2.96-6.31-4.44-11.35-4.44h-.39c-5.22,0-9.22,1.55-12.01,4.63-2.79,3.09-4.18,7.55-4.18,13.38v16.18c0,4.26.63,7.83,1.89,10.7,1.26,2.87,3.09,5.02,5.48,6.46,2.39,1.44,5.29,2.15,8.68,2.15h1.31c3.04,0,5.63-.59,7.76-1.76,2.13-1.17,3.76-2.74,4.89-4.7,1.13-1.96,1.7-4.24,1.7-6.85v-2.61h14.88v2.35c0,5.05-1.2,9.51-3.59,13.38-2.39,3.87-5.81,6.92-10.24,9.14-4.44,2.22-9.57,3.33-15.4,3.33h-1.57c-9.66,0-17.23-2.87-22.71-8.61ZM284.59,167.69h49.98l1.04,7.31v2.87h-51.03v-10.18Z"/>
    <path class="cls-1" d="M438.06,142.25h-64.21v70.6h-26.62v-91.35h90.83v20.75ZM364.46,161.17h71.38v20.75h-71.38v-20.75Z"/>
    <path class="cls-1" d="M449.8,121.5h24.93v12.79h-24.93v-12.79ZM449.8,139.77h24.53v73.08h-24.53v-73.08Z"/>
    <path class="cls-1" d="M484.25,139.77h55.72v20.23h-55.72v-20.23ZM499.91,129.2l24.4-4.31v87.96h-24.4v-83.65Z"/>
  </g>
</svg>