<?xml version="1.0" encoding="UTF-8"?>
<svg id="Ebene_1" data-name="Ebene 1" xmlns="http://www.w3.org/2000/svg" viewBox="0 0 560.63 264.34">
  <defs>
    <style>
      .cls-1 {
        fill: #1d1d1b;
      }
    </style>
  </defs>
  <g>
    <path class="cls-1" d="M31.56,114.71V21.43h62.38v25.3h-28.8v10.83h26.06v23.9h-26.06v33.26H31.56Z"/>
    <path class="cls-1" d="M106.76,114.71V48.83h31.03v9.24c2.76-3.78,5.84-6.62,9.24-8.51,3.4-1.89,7.16-2.84,11.28-2.84.64,0,1.12.01,1.43.03.32.02.61.05.86.1v31.99c-1.78-.98-3.42-1.7-4.91-2.17-1.49-.47-2.85-.7-4.08-.7-4.08,0-7.23,1.1-9.46,3.31-2.23,2.21-3.35,5.31-3.35,9.3v26.13h-32.05Z"/>
    <path class="cls-1" d="M247.66,87l-45.43.06v1.02c0,3.36.6,5.85,1.82,7.49,1.21,1.64,3.05,2.45,5.51,2.45,1.49,0,2.78-.44,3.89-1.31,1.1-.87,1.98-2.13,2.61-3.79l29.63,1.98c-2.59,7.14-7.05,12.64-13.38,16.5-6.33,3.87-14.08,5.8-23.26,5.8-5.1,0-9.87-.78-14.31-2.33-4.44-1.55-8.42-3.81-11.95-6.79-3.95-3.44-6.99-7.41-9.11-11.92-2.12-4.5-3.19-9.24-3.19-14.21s1.07-9.78,3.22-14.31c2.14-4.52,5.17-8.46,9.08-11.82,3.53-3.02,7.5-5.29,11.92-6.82,4.42-1.53,9.2-2.29,14.34-2.29,7.05,0,13.38,1.41,18.99,4.24,5.61,2.83,10.28,6.94,14.02,12.33,1.91,2.76,3.35,5.81,4.3,9.14.96,3.34,1.43,6.98,1.43,10.93,0,1.02-.01,1.78-.03,2.29-.02.51-.05.96-.1,1.34ZM202.48,72.66l14.46.06c-.13-2.59-.78-4.5-1.94-5.73-1.17-1.23-2.9-1.85-5.19-1.85-2.04,0-3.69.65-4.94,1.94-1.25,1.3-2.05,3.15-2.39,5.58Z"/>
    <path class="cls-1" d="M294.76,28.31c0,4.72-1.55,8.46-4.65,11.25-3.1,2.78-7.29,4.17-12.55,4.17s-9.54-1.4-12.68-4.21c-3.14-2.8-4.72-6.54-4.72-11.21s1.55-8.36,4.65-11.06c3.1-2.7,7.35-4.05,12.74-4.05s9.56,1.35,12.62,4.05c3.06,2.7,4.59,6.38,4.59,11.06ZM261.5,114.71V48.83h31.99v65.89h-31.99Z"/>
    <path class="cls-1" d="M311.02,6.45h12.17v49.89c3.48-5.78,7.99-8.67,13.51-8.67s9.18,2.1,11.47,6.31c1.27,2.38,1.91,6.99,1.91,13.83v46.9h-12.17l-.06-44.09c0-4.46-.53-7.62-1.59-9.49-1.06-1.87-2.89-2.8-5.48-2.8-1.4,0-2.58.24-3.54.73-.96.49-1.73,1.27-2.33,2.36-.6,1.08-1.03,2.5-1.31,4.24-.28,1.74-.41,3.89-.41,6.44v42.63h-12.17V6.45Z"/>
    <path class="cls-1" d="M404.63,48.76v65.95h-12.17v-8.47c-1.74,3.61-3.48,6.1-5.23,7.46-1.74,1.36-4.04,2.04-6.88,2.04-5.48,0-9.49-2.8-12.04-8.41s-3.82-14.4-3.82-26.38,1.27-19.83,3.82-25.2c2.55-5.37,6.56-8.06,12.04-8.06,5.01,0,9.05,2.85,12.11,8.54v-7.46h12.17ZM377.11,81.45c0,8.67.57,14.72,1.72,18.16,1.19,3.44,3.27,5.16,6.24,5.16,2.72,0,4.69-1.78,5.93-5.35,1.23-3.82,1.85-9.71,1.85-17.65s-.62-13.89-1.85-17.71c-1.23-3.57-3.21-5.35-5.93-5.35-2.89,0-4.95,1.7-6.18,5.1-1.19,3.14-1.78,9.03-1.78,17.65Z"/>
    <path class="cls-1" d="M421.59,48.76h12.17v44.09c.08,4.08.69,6.99,1.82,8.73,1.12,1.74,3,2.61,5.64,2.61s4.69-.76,5.8-2.29c1.1-1.61,1.66-4.42,1.66-8.41v-44.73h12.17v39.44c0,9.22-.68,15.38-2.04,18.48-2.85,6.03-8.75,9.05-17.71,9.05-7.05,0-12.06-1.78-15.04-5.35-2.97-3.61-4.46-9.62-4.46-18.03v-43.58Z"/>
    <path class="cls-1" d="M503.23,50.1v11.41c-2.97-2.21-6.1-3.31-9.37-3.31-1.1,0-2.12.19-3.06.57-.93.38-1.75.9-2.45,1.56-.7.66-1.25,1.44-1.66,2.36-.4.91-.6,1.88-.6,2.9,0,3.14,2.85,6.88,8.54,11.21,2.29,1.78,4.21,3.44,5.74,4.97s2.7,2.97,3.5,4.33c1.66,2.68,2.48,6.05,2.48,10.13,0,5.91-1.72,10.64-5.16,14.21-3.4,3.53-7.96,5.29-13.7,5.29-3.53,0-7.09-1.04-10.71-3.12v-11.79c3.53,2.63,6.86,3.95,10,3.95,5.56,0,8.35-2.74,8.35-8.22,0-2.04-.51-3.8-1.53-5.29-.47-.72-1.21-1.56-2.23-2.52-1.02-.96-2.27-2.03-3.76-3.22-5.14-3.99-8.62-7.35-10.45-10.07-1.78-2.8-2.68-6.18-2.68-10.13,0-5.31,1.64-9.66,4.91-13.06,3.31-3.36,7.62-5.03,12.94-5.03,3.74,0,7.37.96,10.9,2.87Z"/>
  </g>
  <g>
    <path class="cls-1" d="M107.33,126.09v17.59c-8.58-7.18-17.46-10.77-26.64-10.77-10.11,0-18.63,3.63-25.55,10.9-6.97,7.22-10.45,16.06-10.45,26.51s3.48,19.03,10.45,26.13c6.97,7.09,15.5,10.64,25.62,10.64,5.23,0,9.66-.85,13.32-2.55,2.04-.85,4.15-2,6.34-3.44,2.19-1.44,4.49-3.19,6.91-5.23v17.91c-8.5,4.8-17.42,7.2-26.76,7.2-14.06,0-26.06-4.91-36-14.72-9.9-9.9-14.85-21.83-14.85-35.81,0-12.53,4.14-23.7,12.43-33.52,10.2-12.02,23.39-18.03,39.57-18.03,8.84,0,17.37,2.4,25.62,7.2Z"/>
    <path class="cls-1" d="M141.45,207.65l-27.91-50.53h16.63l18.99,35.68,17.71-35.68h16.19l-49.45,95.84h-16.38l24.21-45.31Z"/>
    <path class="cls-1" d="M237.06,159.8v19.05c-3.27-3.99-6.2-6.73-8.79-8.22-2.55-1.53-5.54-2.29-8.98-2.29-5.4,0-9.88,1.89-13.44,5.67-3.57,3.78-5.35,8.52-5.35,14.21s1.72,10.6,5.16,14.34c3.48,3.74,7.92,5.61,13.32,5.61,3.44,0,6.48-.74,9.11-2.23,2.55-1.44,5.54-4.25,8.98-8.41v18.92c-5.82,3.02-11.64,4.52-17.46,4.52-9.6,0-17.63-3.1-24.09-9.3-6.46-6.24-9.69-14-9.69-23.26s3.27-17.08,9.81-23.45c6.54-6.37,14.57-9.56,24.09-9.56,6.12,0,11.89,1.47,17.33,4.4Z"/>
    <path class="cls-1" d="M263.85,111.56v107.62h-14.34v-107.62h14.34Z"/>
    <path class="cls-1" d="M337.1,191.53h-44.48c.38,5.1,2.04,9.15,4.97,12.17,2.93,2.97,6.69,4.46,11.28,4.46,3.57,0,6.52-.85,8.86-2.55,2.29-1.7,4.91-4.84,7.84-9.43l12.11,6.75c-1.87,3.19-3.85,5.92-5.93,8.19-2.08,2.27-4.31,4.14-6.69,5.61-2.38,1.47-4.95,2.54-7.71,3.22-2.76.68-5.76,1.02-8.98,1.02-9.26,0-16.69-2.97-22.3-8.92-5.61-5.99-8.41-13.93-8.41-23.83s2.72-17.76,8.16-23.83c5.48-5.99,12.74-8.98,21.79-8.98s16.35,2.91,21.67,8.73c5.27,5.78,7.9,13.79,7.9,24.02l-.06,3.38ZM322.38,179.81c-2-7.65-6.82-11.47-14.46-11.47-1.74,0-3.38.27-4.91.8-1.53.53-2.92,1.3-4.17,2.29-1.25,1-2.33,2.2-3.22,3.6-.89,1.4-1.57,2.99-2.04,4.78h28.8Z"/>
    <path class="cls-1" d="M351.02,219.19v-93.29h62.38v25.3h-28.8v10.83h26.06v23.9h-26.06v33.26h-33.58Z"/>
    <path class="cls-1" d="M455.55,132.78c0,4.72-1.55,8.46-4.65,11.25-3.1,2.78-7.29,4.17-12.55,4.17s-9.54-1.4-12.68-4.21c-3.14-2.8-4.72-6.54-4.72-11.21s1.55-8.36,4.65-11.06c3.1-2.7,7.35-4.05,12.74-4.05s9.56,1.35,12.62,4.05c3.06,2.7,4.59,6.38,4.59,11.06ZM422.29,219.19v-65.89h31.99v65.89h-31.99Z"/>
    <path class="cls-1" d="M471.57,219.19v-41.61h-9.11v-24.28h9.11v-21.79h31.99v21.79h9.11v24.28h-9.11v41.61h-31.99Z"/>
  </g>
</svg>